<svg id="Layer_1" data-name="Layer 1" xmlns="http://www.w3.org/2000/svg" xmlns:xlink="http://www.w3.org/1999/xlink" viewBox="0 0 2759 943"><defs><style>.cls-1{fill:url(#radial-gradient);}.cls-2{fill:url(#radial-gradient-2);}.cls-3{font-size:392.96px;}.cls-3,.cls-7{fill:#262626;}.cls-11,.cls-3{font-family:Futura-Bold, Futura;font-weight:700;}.cls-4{letter-spacing:0.01em;}.cls-5{letter-spacing:0em;}.cls-6{letter-spacing:0em;}.cls-7{font-size:335.47px;font-family:Futura-Medium, Futura;font-weight:500;}.cls-8{fill:#fff;}.cls-9{fill:none;stroke:#fff;stroke-miterlimit:10;stroke-width:22px;}.cls-10,.cls-11{fill:#f7931e;}.cls-11{font-size:84.28px;}.cls-12{letter-spacing:0.01em;}.cls-13{letter-spacing:0em;}.cls-14{letter-spacing:-0.04em;}.cls-15{letter-spacing:0em;}</style><radialGradient id="radial-gradient" cx="460.03" cy="489.13" r="442.99" gradientUnits="userSpaceOnUse"><stop offset="0.77" stop-color="#fefefe"/><stop offset="0.9" stop-color="#dcdcdc"/><stop offset="1" stop-color="#a3a3a3"/></radialGradient><radialGradient id="radial-gradient-2" cx="460.03" cy="489.13" fx="810.9025212690603" fy="617.7592606086926" r="373.71" gradientUnits="userSpaceOnUse"><stop offset="0.31" stop-color="#42a2cf"/><stop offset="0.8" stop-color="#1c6891"/></radialGradient></defs><title>final_Artboard 2</title><circle class="cls-1" cx="460.03" cy="489.13" r="442.99"/><circle class="cls-2" cx="460.03" cy="489.13" r="373.71"/><text class="cls-3" transform="translate(1172.58 414.4)">Dak<tspan class="cls-4" x="858.6" y="0">t</tspan><tspan class="cls-5" x="1009.09" y="0">a</tspan><tspan class="cls-6" x="1284.55" y="0">r</tspan><tspan x="1467.67" y="0">i</tspan></text><text class="cls-7" transform="translate(1174.28 712.57)">Nyumbani</text><path class="cls-8" d="M488,545.53l-19.76,29.74c-2.22,3.35-4.45,6.7-6.65,10.07-5.51,8.44-17,9.35-21.88,6.08-11.24-7.46-10.87-18-6.23-25q26-39,51.83-78.07a18.11,18.11,0,0,1,10.93-7.59c11.56-3.17,23.24-5.71,35-8.11A17.5,17.5,0,0,1,548.42,478c5.2,5.41,10.21,11,15.49,16.35,10.66,10.77,20.39,22.42,31.36,32.9,6,5.69,10,12.3,9.12,21.29-.65,6.78-.19,13.67-.07,20.51,0,2.24-.65,3-3,3-9.25-.11-18.51-.12-27.76,0-2.56,0-3.2-.88-3.13-3.26.15-5.1.06-10.2,0-15.29,0-1.32.23-2.69-.83-3.81-5.87-6.2-11.72-12.42-18-19-.94,4.17,0,7.69.13,11.19.43,12.73,1.06,25.46,1.44,38.19.12,4.09,2.25,7.38,3.69,10.94.76,1.89.68,2.69-1.61,2.62-3.08-.1-6.16,0-9.25,0-14.74.19-26.36,10.51-28.09,25.22a29.09,29.09,0,0,1-3.62,10.89c-10.55,19.13-20.89,38.38-31.31,57.58-4.5,8.3-8.85,16.7-13.57,24.87-3.55,6.15-9.24,8.79-16.3,8.12-6.79-.64-11.42-4.41-13.92-10.63-1.95-4.86-1.33-9.68.95-14.39,15.67-32.31,31.16-64.69,47-96.91,3.52-7.16,5.7-14,4.42-22.21-1.56-10-1.93-20.19-2.81-30.3Z"/><path class="cls-8" d="M305.71,720.57c-5.61-.33-10.5-2.77-15.37-5.26a31.3,31.3,0,0,1-10.17-21c-.09-1.06-.15-2.11-.22-3.17,0-2.94,0-5.88,0-8.82q0-6.06,0-12.12,0-3.2,0-6.41,0-6.45,0-12.9a1.52,1.52,0,0,0,.28-.68.37.37,0,0,0,.49-.16l.82,0,60.37,0q23.52.07,47.05.15c16.9,0,33.8,0,50.69-.06,3,0,4.21.12,2.49,3.56-5.75,11.5-11.16,23.18-16.8,34.73-4.48,9.17-5.32,18.54-1.05,27.86,1.58,3.47.78,4.3-2.48,4.41"/><path class="cls-8" d="M553.64,709.77c-6.33.07-13.37.91-18.64-2.75a23.69,23.69,0,0,1-3.22-2.41c-4.11-4.06-5.57-9.3-5.57-15.11,0-22.51-.08-45,0-67.54a19.84,19.84,0,0,1,20.22-20.09c24.25-.07,48.51,0,72.76,0,1.47,0,2.94-.11,4.41-.17,3.76.58,7.59-.43,11.36,1.07,7.39,3,12.1,8,13.66,15.86.05.6.11,1.19.17,1.78q.23,18.45.47,36.88,0,8.07,0,16.14c0,1.06,0,2.12,0,3.18q0,3.24,0,6.48v6.4c-.05.79-.11,1.59-.16,2.39-2,9.71-7.91,15.76-17.36,18.5m-76.13-13c24.39.08,48.77.2,73.16.18,4.72,0,7.81-3.18,7.83-7.94q.09-33.76,0-67.54c0-4.07-2-6.83-6.24-7.62l-1-.27-46-.08c-12.32-.07-24.63-.26-36.95-.17-4.62,0-7.69,3.3-8,7.94-.18,2.93,0,5.89,0,8.84q0,28.72,0,57.45c0,6.37,3,9.36,9.33,9.41C550.33,697.63,553,697.48,555.67,697.41Z"/><path class="cls-8" d="M482.69,415.75c12-17.95,35.05-21.28,51.84-7.49.82.67,1.7,1.28,2.55,1.91,8.47,9,10.77,20,9.09,31.72-1.77,12.41-15.94,24.7-28.9,26.32-14.23,1.77-25.68-3.1-33.67-14.86C475.36,441.21,475.73,428.46,482.69,415.75Z"/><path class="cls-8" d="M465.27,605.23c-5.18,10.87-10.39,21.73-15.53,32.63a3,3,0,0,1-3.16,1.84q-38.22-.08-76.44,0c-2.19,0-2.71-.86-2.7-2.85q.09-18.11,0-36.21c0-2.25.68-3,3-3,16.5.08,33,0,49.49,0a4.19,4.19,0,0,1,3.3,1.06c12.39,12.19,26.43,13.39,41.7,6.11C465,605,465.14,605.1,465.27,605.23Z"/><path class="cls-8" d="M509.87,691.3c.32,9.61,4.16,17.67,10.78,24.52a7.32,7.32,0,0,0,3.16,2c1.42.46,2.73,1.82,0,2.7l-2.5.1a.36.36,0,0,0-.61,0l-12.23,0-11.1,0h-8.89l-.84-.05c-2.73-.2-3.43-.91-1.84-3.72,8-14.16,15.7-28.46,23.52-42.71h0l.33,2.34"/><path class="cls-8" d="M587.44,578.67c4,.25,8.36-.46,12.6.54,6.48,1.53,10.6,8.61,8.33,14.69-1,2.6-3.49,1-5.28,1.29-1.51.28-2-.54-2.2-2.05-.79-6.59-.85-6.58-7.61-6.58-4.56,0-9.12.07-13.68,0-3.61-.06-5.78,1.24-5.21,5.19.49,3.39-1.35,3.56-4,3.59s-4.07-.38-4-3.66c.14-8.39,4.45-13,12.8-13Z"/><rect class="cls-8" x="576.07" y="627.31" width="22.54" height="57.97" rx="4"/><rect class="cls-8" x="576.07" y="627.31" width="22.54" height="57.97" rx="4" transform="translate(1243.64 68.96) rotate(90)"/><path class="cls-8" d="M357.87,623.29c0,9.66-4.3,16.1-5.64,16.1H292.65c-1.33,0-4.83-9.66-4.83-16.1v-.4a35,35,0,0,1,70.05-.41"/><path class="cls-8" d="M750.69,438.2l-91.91-91.91V240.12a34.76,34.76,0,1,0-69.52,0v36.65l-68.44-68.44c-33.83-33.81-92.66-33.75-126.42.06L164.59,438.2a34.77,34.77,0,0,0,49.18,49.16L443.56,257.55c7.48-7.45,20.68-7.45,28.12,0L701.51,487.36a34.77,34.77,0,0,0,49.18-49.16Z"/><path class="cls-9" d="M515.28,747H620.33a65.75,65.75,0,0,0,65.74-65.74V526.55a17.9,17.9,0,0,0-5.25-12.7L468.66,301.73a17.91,17.91,0,0,0-25.34,0L231.13,513.85a18,18,0,0,0-5.25,12.7V681.26A65.75,65.75,0,0,0,291.62,747H515.56"/><path class="cls-10" d="M978.3,280.7H1146L875.62,10.31,605.23,280.7H775c-24,318.58-189.93,576-405.12,638.55,32.82,9.56,72.21,12.75,107,12.75C739.71,932,937.5,689.5,978.3,280.7Z"/><text class="cls-11" transform="translate(2064.9 837.01)">MUBIX <tspan class="cls-12" x="340.49" y="0">C</tspan><tspan class="cls-13" x="397.63" y="0">O. </tspan><tspan class="cls-14" x="532.9" y="0">L</tspan><tspan class="cls-15" x="574.36" y="0">TD</tspan></text></svg>